<svg id="Layer_1" height="512" viewBox="0 0 128 128" width="512" xmlns="http://www.w3.org/2000/svg" data-name="Layer 1"><path d="m5.895 19.91h116.21v78.583h-116.21z" fill="#18bdb1"/><path d="m92.597 19.91h-13.857l-34.474 78.583h13.858z" fill="#2de0c7"/><path d="m111.069 19.91h-3.653l-34.474 78.583h3.653z" fill="#2de0c7"/><path d="m31.323 98.493h7.306l34.473-78.583h-7.306z" fill="#2de0c7"/><path d="m5.895 88.657h116.21v9.836h-116.21z" fill="#383c7c"/><path d="m5.895 19.91h116.21v6.127h-116.21z" fill="#383c7c"/><g fill="#29295b"><path d="m114.5 108.09a3.251 3.251 0 0 0 3.164-4l-1.322-5.6h-8.016l3.174 7.6a3.251 3.251 0 0 0 3 2z"/><path d="m13.5 108.09a3.251 3.251 0 0 1 -3.164-4l1.322-5.6h8.016l-3.174 7.6a3.251 3.251 0 0 1 -3 2z"/><path d="m70.708 91.7h-13.416a1.875 1.875 0 0 0 0 3.75h13.416a1.875 1.875 0 1 0 0-3.75z"/><path d="m17.451 91.7h-2.118a1.875 1.875 0 0 0 0 3.75h2.118a1.875 1.875 0 1 0 0-3.75z"/></g><path d="m122.105 88.657-7.639-11.092h6.235l-9.276-13.471h6.117l-9.9-14.376-9.9 14.376h6.117l-9.277 13.471h6.235l-7.639 11.092z" fill="#fd831f"/><path d="m41.34 61.716-20.379 26.941h40.757z" fill="#fef5e3"/><path d="m78.393 50.787-28.645 37.87h57.291z" fill="#fef5e3"/><path d="m78.393 50.787-9.509 12.572 4.055 5.361 5.454-5.211 5.455 5.211 4.055-5.361z" fill="#fda736"/><path d="m41.34 61.716-9.51 12.572 4.055 5.361 5.455-5.211 5.454 5.211 4.055-5.361z" fill="#fda736"/><path d="m11.172 80.235h4.49v8.422h-4.49z" fill="#dc4620"/><path d="m5.895 55.672h3.738l-3.738 5.429v8.042h.697l-.697 1.012v10.08h21.985l-7.639-11.092h6.235l-9.276-13.471h6.117l-9.9-14.376-7.522 10.922z" fill="#fda736"/><path d="m117.513 80.235h4.592v8.422h-4.592z" fill="#dc4620"/><path d="m122.105 80.235v-36.456l-1.709-2.483-9.901 14.376h6.117l-9.276 13.471h6.235l-7.639 11.092z" fill="#fda736"/><rect fill="#ff5c3c" height="5.813" rx="2.906" width="19.156" x="93.178" y="33.597"/><path d="m89.022 26.037a1.75 1.75 0 0 1 1.75-1.75h1.759a1.75 1.75 0 0 1 0 3.5h-1.759a1.75 1.75 0 0 1 -1.75-1.75zm34.833-6.127v60.324 18.259a1.75 1.75 0 0 1 -1.75 1.75h-3.546l.813 3.446a5 5 0 0 1 -9.482 3.077l-2.725-6.523h-86.33l-2.725 6.523a5 5 0 0 1 -9.482-3.077 1.75 1.75 0 0 1 3.406.8 1.5 1.5 0 0 0 2.846.923l2.161-5.174h-11.141a1.75 1.75 0 0 1 -1.75-1.75v-78.578a1.75 1.75 0 0 1 1.75-1.75h116.2a1.75 1.75 0 0 1 1.755 1.75zm-8.843 50.225-5.75 8.35h11.093v-34.044l-6.53 9.48h2.787a1.75 1.75 0 0 1 1.441 2.742l-7.388 10.729h2.9a1.75 1.75 0 0 1 1.441 2.742zm4.251 16.771h1.092v-4.921h-1.092zm-111.618-62.619h77.409a1.75 1.75 0 0 1 0 3.5h-77.409v18.8l4.33-6.287a1.75 1.75 0 0 1 2.883 0l9.9 14.375a1.75 1.75 0 0 1 -1.441 2.742h-2.787l7.387 10.733a1.75 1.75 0 0 1 -1.441 2.742h-2.9l5.75 8.35a1.735 1.735 0 0 1 -1.082 2.693l-3.76 4.971h24.4l3.884-5.134.777-1.027-2.69-3.556-2.659 3.516a1.751 1.751 0 0 1 -2.6.21l-4.246-4.057-4.245 4.057a1.753 1.753 0 0 1 -1.209.484c-.047 0-.093 0-.141-.006a1.748 1.748 0 0 1 -1.255-.688l-2.8-3.7a1.745 1.745 0 0 1 -2.111-2.645l10.363-13.7a1.812 1.812 0 0 1 2.791 0l9.51 12.572 3.488 4.611 11.747-15.543.961-1.27 8.551-11.3a1.812 1.812 0 0 1 2.791 0l8.549 11.3.96 1.27 7.155 9.459 4.075-5.918h-2.788a1.75 1.75 0 0 1 -1.442-2.741l9.9-14.376a1.75 1.75 0 1 1 2.883 1.984l-8.011 11.634h2.787a1.75 1.75 0 0 1 1.441 2.742l-6.622 9.616 9.231 12.2h7.854v-4.916h-9.831a1.75 1.75 0 0 1 -1.441-2.742l5.75-8.35h-2.9a1.75 1.75 0 0 1 -1.441-2.742l7.388-10.729h-2.788a1.75 1.75 0 0 1 -1.441-2.742l9.9-14.375a1.722 1.722 0 0 1 1.4-.707v-11.81h-21.817a1.75 1.75 0 0 1 0-3.5h21.813v-2.627h-112.71zm45.622 62.619h50.254l-15.621-20.647-2.66 3.516a1.751 1.751 0 0 1 -2.6.21l-4.245-4.057-4.246 4.057a1.754 1.754 0 0 1 -1.209.484c-.047 0-.093 0-.141-.006a1.748 1.748 0 0 1 -1.255-.688l-2.659-3.516zm17.811-23.547 2.072 2.741 4.035-3.854a1.751 1.751 0 0 1 2.418 0l4.034 3.854 2.072-2.739-7.315-9.671zm-37.054 10.929 2.076 2.739 4.034-3.854a1.751 1.751 0 0 1 2.418 0l4.035 3.854 2.072-2.739-7.315-9.671zm-13.933 12.618 3.723-4.922h-6.4v4.922zm-10.669 0v-4.922h-1.777v4.922zm6.228-32.049a1.751 1.751 0 0 1 1.549-.936h2.787l-6.57-9.54-5.771 8.38v1.16h1.988a1.75 1.75 0 0 1 0 3.5h-1.988v21.063h16.9l-5.75-8.35a1.75 1.75 0 0 1 1.441-2.742h2.9l-7.378-10.728a1.75 1.75 0 0 1 -.108-1.807zm-2.728 32.049h.989v-4.921h-.989zm102.041 13.337h-4l2.161 5.174a1.5 1.5 0 0 0 2.846-.923zm5.393-9.837h-112.711v6.337h112.71zm-49.648 1.419h-13.416a1.75 1.75 0 0 0 0 3.5h13.416a1.75 1.75 0 0 0 0-3.5zm-53.257 0h-2.118a1.75 1.75 0 1 0 0 3.5h2.119a1.75 1.75 0 1 0 0-3.5zm78.634-59.978h13.343a4.657 4.657 0 0 1 0 9.313h-13.343a4.657 4.657 0 0 1 0-9.313zm-1.156 4.653a1.157 1.157 0 0 0 1.156 1.156h13.343a1.157 1.157 0 1 0 0-2.313h-13.343a1.158 1.158 0 0 0 -1.156 1.157z" fill="#0f123a"/></svg>