<svg height="512" viewBox="0 0 512 512" width="512" xmlns="http://www.w3.org/2000/svg"><g><g><path d="m496 92v276h-480v-276a19.994 19.994 0 0 1 20-20h440a19.994 19.994 0 0 1 20 20z" fill="#78b9eb"/><path d="m496 368v28a19.994 19.994 0 0 1 -20 20h-440a19.994 19.994 0 0 1 -20-20v-28z" fill="#d8d7da"/><path d="m144 472h224v24h-224z" fill="#d8d7da"/><path d="m328 472h-144l16-56h112z" fill="#acabb1"/></g><g><g><path d="m440 36v28h-368v-28a19.994 19.994 0 0 1 20-20h328a19.994 19.994 0 0 1 20 20z" fill="#acabb1"/><path d="m440 64v252a19.994 19.994 0 0 1 -20 20h-328a19.994 19.994 0 0 1 -20-20v-252z" fill="#006df0"/></g><circle cx="256" cy="176" fill="#d80027" r="88"/><path d="m224 224v-96l80 48z" fill="#d8d7da"/></g><g><path d="m476 64h-28v-28a28.031 28.031 0 0 0 -28-28h-328a28.031 28.031 0 0 0 -28 28v28h-28a28.031 28.031 0 0 0 -28 28v304a28.031 28.031 0 0 0 28 28h153.39l-11.42 40h-33.97a8 8 0 0 0 -8 8v24a8 8 0 0 0 8 8h224a8 8 0 0 0 8-8v-24a8 8 0 0 0 -8-8h-33.97l-11.42-40h153.39a28.031 28.031 0 0 0 28-28v-304a28.031 28.031 0 0 0 -28-28zm-396-28a12.01 12.01 0 0 1 12-12h328a12.01 12.01 0 0 1 12 12v20h-352zm0 36h352v244a12.01 12.01 0 0 1 -12 12h-328a12.01 12.01 0 0 1 -12-12zm280 408v8h-208v-8zm-165.39-16 11.42-40h99.94l11.42 40zm293.39-68a12.01 12.01 0 0 1 -12 12h-440a12.01 12.01 0 0 1 -12-12v-20h464zm0-36h-464v-268a12.01 12.01 0 0 1 12-12h28v236a28.031 28.031 0 0 0 28 28h328a28.031 28.031 0 0 0 28-28v-236h28a12.01 12.01 0 0 1 12 12z"/><path d="m96 48h8a8 8 0 0 0 0-16h-8a8 8 0 0 0 0 16z"/><path d="m128 48h8a8 8 0 0 0 0-16h-8a8 8 0 0 0 0 16z"/><path d="m160 48h8a8 8 0 0 0 0-16h-8a8 8 0 0 0 0 16z"/><path d="m104 304h24a8 8 0 0 0 16 0h264a8 8 0 0 0 0-16h-264a8 8 0 0 0 -16 0h-24a8 8 0 0 0 0 16z"/><path d="m256 272a96 96 0 1 0 -96-96 96.108 96.108 0 0 0 96 96zm0-176a80 80 0 1 1 -80 80 80.091 80.091 0 0 1 80-80z"/><path d="m220.059 230.962a8 8 0 0 0 8.057-.1l80-48a8 8 0 0 0 0-13.72l-80-48a8 8 0 0 0 -12.116 6.858v96a8 8 0 0 0 4.059 6.962zm11.941-88.832 56.451 33.87-56.451 33.87z"/></g></g></svg>